# xmcd
#
# Track frame offsets:
#	150
#	14372
#	27191
#	43414
#	54686
#	59283
#
# Disc length: 978 seconds
#
# Revision: 1
# Processed by: cddbd v1.5.2PL0 Copyright (c) Steve Scherf et al.
# Submitted via: audiograbber 1.83.01
#
DISCID=4e03d006
DTITLE=Various Artist - Hesen Robotti Disco Vol 3
DYEAR=2006
DGENRE=Pop
TTITLE0=T. Bird - Neiti I. Ja Herra H.
TTITLE1=Liquid - L‰hdet‰‰n Korkeasaareen
TTITLE2=T. Bird - Karhu Nukkuu
TTITLE3=Hurmo Yli-Nikka - Min‰ Soitan Harmonikkaa
TTITLE4=Tonto - Hesburber
TTITLE5=T. Bird - Neiti I. Ja Herra H. (Karaoke)
EXTD=TR.
EXTT0=
EXTT1=
EXTT2=
EXTT3=
EXTT4=
EXTT5=
PLAYORDER=
